<svg width="432" height="216" viewBox="0 0 432 216" fill="none" xmlns="http://www.w3.org/2000/svg">
<rect x="254.5" y="38" width="138" height="101.1" fill="white"/>
<path d="M257.3 41.3H41.3V139.1H257.3V41.3Z" fill="#27AAE1"/>
<path d="M162.871 86.3473C162.871 98.5081 171.466 108.038 183.802 108.038C194.209 108.038 200.055 101.139 200.055 101.139L196.898 96.9295C196.898 96.9295 192.045 102.542 183.86 102.542C175.441 102.542 168.952 95.3509 168.952 86.3473C168.952 77.0513 175.383 70.7956 183.685 70.7956C187.836 70.7956 193.682 72.5495 193.682 75.999V78.3376H199.061V74.3035C199.061 67.6969 189.122 65.3583 183.568 65.3583C171.758 65.3583 162.871 74.4204 162.871 86.3473ZM219.567 101.899C219.567 101.899 224.478 108.038 233.247 108.038C241.433 108.038 246.344 102.601 246.344 96.2864C246.344 82.7225 226.465 84.5933 226.465 76.2328C226.465 73.1342 229.272 70.6786 233.715 70.6786C236.989 70.6786 240.088 72.2572 240.088 74.4204V76.3497H245.467V72.9588C245.467 67.3461 238.1 65.3583 233.715 65.3583C225.939 65.3583 220.502 70.2109 220.502 76.4082C220.502 89.2706 240.439 87.9259 240.439 96.5787C240.439 100.379 237.223 102.718 233.364 102.718C227.226 102.718 223.016 97.748 223.016 97.748L219.567 101.899Z" fill="white"/>
<path d="M270.008 92.8954C270.008 101.899 276.322 108.038 285.793 108.038C295.206 108.038 301.462 101.899 301.462 92.8954V72.3741C301.462 71.4971 301.93 71.0879 302.748 71.0879H305.262V66.0599H299.416C296.785 66.0599 295.616 67.1707 295.616 69.8016V92.6031C295.616 98.8588 291.698 102.542 285.735 102.542C279.772 102.542 275.854 98.8588 275.854 92.6615V69.8016C275.854 67.1707 274.744 66.0599 272.113 66.0599H266.208V71.0879H268.722C269.54 71.0879 270.008 71.4971 270.008 72.3741V92.8954ZM324.678 101.899C324.678 101.899 329.589 108.038 338.359 108.038C346.544 108.038 351.455 102.601 351.455 96.2864C351.455 82.7225 331.577 84.5933 331.577 76.2328C331.577 73.1342 334.384 70.6786 338.827 70.6786C342.101 70.6786 345.2 72.2572 345.2 74.4204V76.3497H350.578V72.9588C350.578 67.3461 343.212 65.3583 338.827 65.3583C331.051 65.3583 325.614 70.2109 325.614 76.4082C325.614 89.2706 345.55 87.9259 345.55 96.5787C345.55 100.379 342.335 102.718 338.476 102.718C332.337 102.718 328.128 97.748 328.128 97.748L324.678 101.899Z" fill="#27AAE1"/>
<path d="M390.7 41.3V139H41.3V41.3H390.7ZM395.7 36.3H390.7H41.3H36.3V41.3V139V144H41.3H390.8H395.8V139V41.3V36.3H395.7Z" fill="#27AAE1"/>
<path d="M30.3 90.1H130" stroke="white" stroke-width="3" stroke-miterlimit="10"/>
<path d="M30.3 78.8H80.6L92.7 66.7" stroke="white" stroke-width="3" stroke-miterlimit="10"/>
<path d="M95.4 58.9C92.6 58.9 90.3 61.2 90.3 64C90.3 66.8 92.6 69.1 95.4 69.1C98.2 69.1 100.5 66.8 100.5 64C100.5 61.1 98.2 58.9 95.4 58.9ZM95.4 67.1C93.7 67.1 92.3 65.7 92.3 64C92.3 62.3 93.7 60.9 95.4 60.9C97.1 60.9 98.5 62.3 98.5 64C98.5 65.7 97.1 67.1 95.4 67.1Z" fill="white"/>
<path d="M134.6 85C131.8 85 129.5 87.3 129.5 90.1C129.5 92.9 131.8 95.2 134.6 95.2C137.4 95.2 139.7 92.9 139.7 90.1C139.7 87.3 137.4 85 134.6 85ZM134.6 93.3C132.9 93.3 131.5 91.9 131.5 90.2C131.5 88.5 132.9 87.1 134.6 87.1C136.3 87.1 137.7 88.5 137.7 90.2C137.7 91.9 136.3 93.3 134.6 93.3Z" fill="white"/>
<path d="M121 114.3C118.2 114.3 115.9 116.6 115.9 119.4C115.9 122.2 118.2 124.5 121 124.5C123.8 124.5 126.1 122.2 126.1 119.4C126.1 116.6 123.8 114.3 121 114.3ZM121 122.6C119.3 122.6 117.9 121.2 117.9 119.5C117.9 117.8 119.3 116.4 121 116.4C122.7 116.4 124.1 117.8 124.1 119.5C124.1 121.2 122.7 122.6 121 122.6Z" fill="white"/>
<path d="M30.3 101.5H103.1L118.3 116.8" stroke="white" stroke-width="3" stroke-miterlimit="10"/>
<path d="M36.3014 167.251C36.3014 171.139 39.0785 174.28 42.928 174.28C46.1838 174.28 47.9841 172.154 47.9841 172.154L47.467 171.561C47.467 171.561 45.8008 173.476 42.928 173.476C39.6147 173.476 37.1633 170.718 37.1633 167.251C37.1633 163.804 39.6339 161.219 42.8705 161.219C44.5942 161.219 47.0073 161.985 47.0073 163.364V164.13H47.8309V163.172C47.8309 161.257 44.824 160.414 42.8514 160.414C39.1359 160.414 36.3014 163.364 36.3014 167.251ZM49.5445 169.205C49.5445 172.059 51.7661 174.28 54.5049 174.28C57.2436 174.28 59.4652 172.059 59.4652 169.205C59.4652 166.409 57.2436 164.245 54.5049 164.245C51.7661 164.245 49.5445 166.409 49.5445 169.205ZM50.3872 169.205C50.3872 166.83 52.2258 165.03 54.5049 165.03C56.7839 165.03 58.6225 166.83 58.6225 169.205C58.6225 171.637 56.7839 173.495 54.5049 173.495C52.2258 173.495 50.3872 171.637 50.3872 169.205ZM62.0209 174.05H62.8253V169.377C62.8253 168.918 62.8636 168.477 62.9785 168.075C63.419 166.485 64.7597 164.992 66.4642 164.992C68.5709 164.992 68.8007 166.619 68.8007 168.267V174.05H69.6051V169.377C69.6051 168.822 69.6625 168.343 69.7966 167.903C70.218 166.409 71.5777 164.992 73.1673 164.992C75.1974 164.992 75.5613 166.466 75.5613 168.267V172.94C75.5613 173.725 75.8869 174.05 76.6721 174.05H77.6106V173.323H76.7871C76.5189 173.323 76.3657 173.189 76.3657 172.901V167.979C76.3657 165.7 75.6379 164.245 73.1673 164.245C71.5203 164.245 70.0647 165.413 69.5285 166.849H69.4902C69.2795 165.145 68.3794 164.245 66.4642 164.245C64.9703 164.245 63.3041 165.413 62.8253 166.849H62.787C62.787 166.849 62.8253 166.505 62.8253 166.064V165.528C62.8253 164.8 62.4997 164.474 61.7145 164.474H60.7761V165.202H61.5996C61.8677 165.202 62.0209 165.336 62.0209 165.624V174.05ZM79.7327 177.881H80.5371V173.055C80.5371 172.557 80.4988 172.212 80.4988 172.212H80.5371C80.5371 172.212 81.3223 174.28 83.8504 174.28C86.321 174.28 88.1021 172.308 88.1021 169.262C88.1021 166.294 86.5316 164.245 83.9653 164.245C81.3032 164.245 80.5562 166.294 80.5562 166.294H80.5179C80.5179 166.294 80.5371 165.968 80.5371 165.528C80.5371 164.8 80.2115 164.474 79.4263 164.474H78.4878V165.202H79.3114C79.5795 165.202 79.7327 165.336 79.7327 165.624V177.881ZM80.5179 169.282C80.5179 166.275 82.165 165.03 83.927 165.03C85.8805 165.03 87.2594 166.677 87.2594 169.262C87.2594 171.944 85.7272 173.514 83.8504 173.514C81.667 173.514 80.5179 171.407 80.5179 169.282ZM90.6544 170.546C90.6544 172.978 91.4588 174.28 93.8144 174.28C96.1318 174.28 97.415 172.576 97.7406 171.676H97.7789C97.7789 171.676 97.7406 172.02 97.7406 172.461V172.997C97.7406 173.725 98.0662 174.05 98.8514 174.05H99.7898V173.323H98.9663C98.6982 173.323 98.545 173.189 98.545 172.901V164.474H97.7406V169.148C97.7406 171.388 96.2084 173.495 93.8144 173.495C91.6694 173.495 91.4588 171.925 91.4588 170.258V165.528C91.4588 164.8 91.1332 164.474 90.3479 164.474H89.4095V165.202H90.233C90.5012 165.202 90.6544 165.336 90.6544 165.624V170.546ZM102.086 170.584C102.086 173.763 104.135 174.127 105.131 174.127C105.418 174.127 105.61 174.089 105.61 174.089V173.342C105.61 173.342 105.438 173.38 105.169 173.38C104.403 173.38 102.89 173.055 102.89 170.526V165.202H105.399V164.474H102.89V161.812H102.086V164.474H100.822V165.202H102.086V170.584ZM107.019 169.282C107.019 172.327 109.26 174.28 111.96 174.28C114.029 174.28 115.369 172.959 115.369 172.959L114.929 172.288C114.929 172.288 113.799 173.495 111.96 173.495C109.738 173.495 107.862 171.905 107.862 169.128H115.542C115.542 169.128 115.58 168.822 115.58 168.611C115.58 166.294 114.277 164.245 111.673 164.245C109.221 164.245 107.019 166.045 107.019 169.282ZM107.919 168.381C108.264 166.141 109.892 164.992 111.654 164.992C113.243 164.992 114.641 166.045 114.737 168.381H107.919ZM118.298 174.05H119.103V169.914C119.103 169.282 119.179 168.573 119.39 167.903C119.811 166.485 120.75 165.221 122.244 165.221C122.454 165.221 122.684 165.26 122.684 165.26V164.455C122.684 164.455 122.416 164.398 122.129 164.398C120.616 164.398 119.582 165.509 119.103 166.983H119.064C119.064 166.983 119.103 166.639 119.103 166.198V165.528C119.103 164.8 118.777 164.474 117.992 164.474H117.053V165.202H117.877C118.145 165.202 118.298 165.336 118.298 165.624V174.05ZM129.124 172.461C129.124 172.461 130.579 174.28 133.222 174.28C135.616 174.28 137.11 172.633 137.11 170.699C137.11 166.256 130.349 167.156 130.349 163.67C130.349 162.406 131.441 161.219 133.433 161.219C134.831 161.219 136.057 161.87 136.057 162.751V163.402H136.88V162.559C136.88 160.893 134.582 160.414 133.414 160.414C130.981 160.414 129.488 161.966 129.488 163.689C129.488 167.864 136.248 166.983 136.248 170.737C136.248 172.346 134.927 173.476 133.26 173.476C131.039 173.476 129.679 171.829 129.679 171.829L129.124 172.461ZM138.964 169.282C138.964 172.327 141.204 174.28 143.905 174.28C146.28 174.28 147.525 172.786 147.525 172.786L147.103 172.116C147.103 172.116 146.012 173.495 143.905 173.495C141.664 173.495 139.806 171.829 139.806 169.282C139.806 166.696 141.664 165.03 143.905 165.03C144.824 165.03 146.471 165.47 146.471 166.409V166.964H147.276V166.236C147.276 164.685 144.939 164.245 143.905 164.245C141.243 164.245 138.964 166.236 138.964 169.282ZM149.869 162.042H150.75V160.644H149.869V162.042ZM149.984 172.94C149.984 173.725 150.31 174.05 151.095 174.05H152.033V173.323H151.21C150.942 173.323 150.788 173.189 150.788 172.901V165.585C150.788 164.8 150.463 164.474 149.678 164.474H148.739V165.202H149.563C149.831 165.202 149.984 165.336 149.984 165.624V172.94ZM153.421 169.282C153.421 172.327 155.662 174.28 158.362 174.28C160.431 174.28 161.771 172.959 161.771 172.959L161.331 172.288C161.331 172.288 160.201 173.495 158.362 173.495C156.141 173.495 154.264 171.905 154.264 169.128H161.944C161.944 169.128 161.982 168.822 161.982 168.611C161.982 166.294 160.68 164.245 158.075 164.245C155.624 164.245 153.421 166.045 153.421 169.282ZM154.321 168.381C154.666 166.141 156.294 164.992 158.056 164.992C159.645 164.992 161.044 166.045 161.139 168.381H154.321ZM164.701 174.05H165.505V169.377C165.505 168.918 165.543 168.477 165.658 168.075C166.137 166.294 167.727 165.03 169.527 165.03C171.672 165.03 171.883 166.6 171.883 168.267V172.94C171.883 173.725 172.208 174.05 172.993 174.05H173.932V173.323H173.108C172.84 173.323 172.687 173.189 172.687 172.901V167.979C172.687 165.719 172.017 164.245 169.527 164.245C167.133 164.245 165.831 165.949 165.505 166.849H165.467C165.467 166.849 165.505 166.505 165.505 166.064V165.528C165.505 164.8 165.179 164.474 164.394 164.474H163.456V165.202H164.279C164.547 165.202 164.701 165.336 164.701 165.624V174.05ZM175.191 169.282C175.191 172.327 177.432 174.28 180.133 174.28C182.507 174.28 183.752 172.786 183.752 172.786L183.331 172.116C183.331 172.116 182.239 173.495 180.133 173.495C177.892 173.495 176.034 171.829 176.034 169.282C176.034 166.696 177.892 165.03 180.133 165.03C181.052 165.03 182.699 165.47 182.699 166.409V166.964H183.503V166.236C183.503 164.685 181.167 164.245 180.133 164.245C177.471 164.245 175.191 166.236 175.191 169.282ZM185.235 169.282C185.235 172.327 187.476 174.28 190.176 174.28C192.245 174.28 193.585 172.959 193.585 172.959L193.145 172.288C193.145 172.288 192.015 173.495 190.176 173.495C187.955 173.495 186.078 171.905 186.078 169.128H193.758C193.758 169.128 193.796 168.822 193.796 168.611C193.796 166.294 192.494 164.245 189.889 164.245C187.437 164.245 185.235 166.045 185.235 169.282ZM186.135 168.381C186.48 166.141 188.108 164.992 189.87 164.992C191.459 164.992 192.857 166.045 192.953 168.381H186.135ZM202.038 169.55C202.038 172.403 204.01 174.28 206.864 174.28C209.718 174.28 211.671 172.403 211.671 169.55V161.831C211.671 161.544 211.824 161.41 212.092 161.41H212.916V160.644H211.958C211.173 160.644 210.848 160.97 210.848 161.755V169.454C210.848 171.925 209.277 173.476 206.845 173.476C204.412 173.476 202.861 171.925 202.861 169.492V161.755C202.861 160.97 202.536 160.644 201.75 160.644H200.793V161.41H201.616C201.884 161.41 202.038 161.544 202.038 161.831V169.55ZM215.33 174.05H216.134V169.377C216.134 168.918 216.172 168.477 216.287 168.075C216.766 166.294 218.356 165.03 220.156 165.03C222.301 165.03 222.512 166.6 222.512 168.267V172.94C222.512 173.725 222.837 174.05 223.622 174.05H224.561V173.323H223.737C223.469 173.323 223.316 173.189 223.316 172.901V167.979C223.316 165.719 222.646 164.245 220.156 164.245C217.762 164.245 216.46 165.949 216.134 166.849H216.096C216.096 166.849 216.134 166.505 216.134 166.064V165.528C216.134 164.8 215.808 164.474 215.023 164.474H214.085V165.202H214.908C215.176 165.202 215.33 165.336 215.33 165.624V174.05ZM225.859 169.262C225.859 172.231 227.429 174.28 229.996 174.28C232.639 174.28 233.424 172.212 233.424 172.212H233.462C233.462 172.212 233.424 172.499 233.424 172.94C233.424 173.725 233.749 174.05 234.535 174.05H235.473V173.323H234.65C234.381 173.323 234.228 173.189 234.228 172.901V161.755C234.228 160.97 233.903 160.644 233.117 160.644H232.179V161.372H233.003C233.271 161.372 233.424 161.506 233.424 161.793V165.528C233.424 165.968 233.462 166.313 233.462 166.313H233.424C233.424 166.313 232.562 164.245 230.149 164.245C227.64 164.245 225.859 166.217 225.859 169.262ZM230.034 173.495C228.08 173.495 226.702 171.848 226.702 169.262C226.702 166.581 228.234 165.011 230.111 165.011C232.351 165.011 233.443 167.117 233.443 169.243C233.443 172.25 231.796 173.495 230.034 173.495ZM236.799 169.282C236.799 172.327 239.04 174.28 241.74 174.28C243.809 174.28 245.149 172.959 245.149 172.959L244.709 172.288C244.709 172.288 243.579 173.495 241.74 173.495C239.519 173.495 237.642 171.905 237.642 169.128H245.322C245.322 169.128 245.36 168.822 245.36 168.611C245.36 166.294 244.058 164.245 241.453 164.245C239.002 164.245 236.799 166.045 236.799 169.282ZM237.699 168.381C238.044 166.141 239.672 164.992 241.434 164.992C243.024 164.992 244.422 166.045 244.517 168.381H237.699ZM248.079 174.05H248.883V169.914C248.883 169.282 248.96 168.573 249.17 167.903C249.592 166.485 250.53 165.221 252.024 165.221C252.235 165.221 252.464 165.26 252.464 165.26V164.455C252.464 164.455 252.196 164.398 251.909 164.398C250.396 164.398 249.362 165.509 248.883 166.983H248.845C248.845 166.983 248.883 166.639 248.883 166.198V165.528C248.883 164.8 248.557 164.474 247.772 164.474H246.834V165.202H247.657C247.925 165.202 248.079 165.336 248.079 165.624V174.05ZM253.352 169.109C253.352 172.097 255.114 174.05 257.604 174.05C259.194 174.05 260.209 173.361 260.783 172.193H260.822C260.822 172.193 260.783 172.537 260.783 172.978V173.993C260.783 176.31 259.194 177.287 257.144 177.287C255.765 177.287 254.578 176.617 254.578 176.617L254.195 177.325C255.133 177.804 256.148 178.072 257.202 178.072C259.481 178.072 261.588 176.923 261.588 173.993V165.624C261.588 165.336 261.741 165.202 262.009 165.202H262.832V164.474H261.894C261.109 164.474 260.783 164.8 260.783 165.585C260.783 165.815 260.802 166.026 260.802 166.026H260.764C260.764 166.026 260.19 164.245 257.47 164.245C254.98 164.245 253.352 166.122 253.352 169.109ZM257.661 173.265C255.612 173.265 254.195 171.695 254.195 169.109C254.195 166.524 255.421 165.03 257.47 165.03C259.347 165.03 260.802 166.026 260.802 169.109C260.802 172.212 259.347 173.265 257.661 173.265ZM265.005 174.05H265.809V169.914C265.809 169.282 265.886 168.573 266.097 167.903C266.518 166.485 267.456 165.221 268.95 165.221C269.161 165.221 269.391 165.26 269.391 165.26V164.455C269.391 164.455 269.123 164.398 268.835 164.398C267.322 164.398 266.288 165.509 265.809 166.983H265.771C265.771 166.983 265.809 166.639 265.809 166.198V165.528C265.809 164.8 265.484 164.474 264.698 164.474H263.76V165.202H264.584C264.852 165.202 265.005 165.336 265.005 165.624V174.05ZM269.978 171.503C269.978 173.418 271.682 174.28 273.234 174.28C275.724 174.28 276.566 172.02 276.547 172.02H276.585C276.585 172.02 276.547 172.365 276.547 172.882C276.547 173.744 276.873 174.05 277.658 174.05H278.596V173.323H277.773C277.505 173.323 277.351 173.189 277.351 172.901V167.864C277.351 165.834 276.719 164.245 273.789 164.245C273.004 164.245 270.84 164.57 270.84 165.7V166.581H271.644V165.93C271.644 165.126 273.272 164.992 273.77 164.992C275.762 164.992 276.547 165.796 276.547 168.075V168.209H275.915C274.211 168.209 269.978 168.247 269.978 171.503ZM270.821 171.446C270.821 168.956 274.306 168.956 275.934 168.956H276.547V169.473C276.547 171.369 275.36 173.533 273.272 173.533C271.644 173.533 270.821 172.461 270.821 171.446ZM279.892 169.262C279.892 172.231 281.462 174.28 284.029 174.28C286.672 174.28 287.457 172.212 287.457 172.212H287.495C287.495 172.212 287.457 172.499 287.457 172.94C287.457 173.725 287.782 174.05 288.568 174.05H289.506V173.323H288.683C288.414 173.323 288.261 173.189 288.261 172.901V161.755C288.261 160.97 287.936 160.644 287.15 160.644H286.212V161.372H287.036C287.304 161.372 287.457 161.506 287.457 161.793V165.528C287.457 165.968 287.495 166.313 287.495 166.313H287.457C287.457 166.313 286.595 164.245 284.182 164.245C281.673 164.245 279.892 166.217 279.892 169.262ZM284.067 173.495C282.114 173.495 280.735 171.848 280.735 169.262C280.735 166.581 282.267 165.011 284.144 165.011C286.384 165.011 287.476 167.117 287.476 169.243C287.476 172.25 285.829 173.495 284.067 173.495ZM291.656 170.546C291.656 172.978 292.46 174.28 294.816 174.28C297.133 174.28 298.416 172.576 298.742 171.676H298.78C298.78 171.676 298.742 172.02 298.742 172.461V172.997C298.742 173.725 299.068 174.05 299.853 174.05H300.791V173.323H299.968C299.7 173.323 299.546 173.189 299.546 172.901V164.474H298.742V169.148C298.742 171.388 297.21 173.495 294.816 173.495C292.671 173.495 292.46 171.925 292.46 170.258V165.528C292.46 164.8 292.135 164.474 291.349 164.474H290.411V165.202H291.234C291.503 165.202 291.656 165.336 291.656 165.624V170.546ZM302.072 171.503C302.072 173.418 303.777 174.28 305.328 174.28C307.818 174.28 308.661 172.02 308.641 172.02H308.68C308.68 172.02 308.641 172.365 308.641 172.882C308.641 173.744 308.967 174.05 309.752 174.05H310.691V173.323H309.867C309.599 173.323 309.446 173.189 309.446 172.901V167.864C309.446 165.834 308.814 164.245 305.884 164.245C305.098 164.245 302.934 164.57 302.934 165.7V166.581H303.739V165.93C303.739 165.126 305.366 164.992 305.864 164.992C307.856 164.992 308.641 165.796 308.641 168.075V168.209H308.009C306.305 168.209 302.072 168.247 302.072 171.503ZM302.915 171.446C302.915 168.956 306.401 168.956 308.029 168.956H308.641V169.473C308.641 171.369 307.454 173.533 305.366 173.533C303.739 173.533 302.915 172.461 302.915 171.446ZM312.944 170.584C312.944 173.763 314.993 174.127 315.989 174.127C316.276 174.127 316.468 174.089 316.468 174.089V173.342C316.468 173.342 316.295 173.38 316.027 173.38C315.261 173.38 313.748 173.055 313.748 170.526V165.202H316.257V164.474H313.748V161.812H312.944V164.474H311.68V165.202H312.944V170.584ZM317.877 169.282C317.877 172.327 320.118 174.28 322.818 174.28C324.886 174.28 326.227 172.959 326.227 172.959L325.787 172.288C325.787 172.288 324.657 173.495 322.818 173.495C320.596 173.495 318.72 171.905 318.72 169.128H326.399C326.399 169.128 326.438 168.822 326.438 168.611C326.438 166.294 325.135 164.245 322.531 164.245C320.079 164.245 317.877 166.045 317.877 169.282ZM318.777 168.381C319.122 166.141 320.75 164.992 322.512 164.992C324.101 164.992 325.499 166.045 325.595 168.381H318.777ZM333.473 172.461C333.473 172.461 334.928 174.28 337.571 174.28C339.965 174.28 341.459 172.633 341.459 170.699C341.459 166.256 334.699 167.156 334.699 163.67C334.699 162.406 335.79 161.219 337.782 161.219C339.18 161.219 340.406 161.87 340.406 162.751V163.402H341.229V162.559C341.229 160.893 338.931 160.414 337.763 160.414C335.331 160.414 333.837 161.966 333.837 163.689C333.837 167.864 340.597 166.983 340.597 170.737C340.597 172.346 339.276 173.476 337.61 173.476C335.388 173.476 334.028 171.829 334.028 171.829L333.473 172.461ZM343.313 169.205C343.313 172.059 345.535 174.28 348.273 174.28C351.012 174.28 353.234 172.059 353.234 169.205C353.234 166.409 351.012 164.245 348.273 164.245C345.535 164.245 343.313 166.409 343.313 169.205ZM344.156 169.205C344.156 166.83 345.994 165.03 348.273 165.03C350.552 165.03 352.391 166.83 352.391 169.205C352.391 171.637 350.552 173.495 348.273 173.495C345.994 173.495 344.156 171.637 344.156 169.205ZM354.928 169.282C354.928 172.327 357.168 174.28 359.869 174.28C362.244 174.28 363.488 172.786 363.488 172.786L363.067 172.116C363.067 172.116 361.975 173.495 359.869 173.495C357.628 173.495 355.77 171.829 355.77 169.282C355.77 166.696 357.628 165.03 359.869 165.03C360.788 165.03 362.435 165.47 362.435 166.409V166.964H363.239V166.236C363.239 164.685 360.903 164.245 359.869 164.245C357.207 164.245 354.928 166.236 354.928 169.282ZM365.833 162.042H366.714V160.644H365.833V162.042ZM365.948 172.94C365.948 173.725 366.273 174.05 367.059 174.05H367.997V173.323H367.174C366.905 173.323 366.752 173.189 366.752 172.901V165.585C366.752 164.8 366.427 164.474 365.641 164.474H364.703V165.202H365.526C365.795 165.202 365.948 165.336 365.948 165.624V172.94ZM369.385 169.282C369.385 172.327 371.626 174.28 374.326 174.28C376.395 174.28 377.735 172.959 377.735 172.959L377.295 172.288C377.295 172.288 376.165 173.495 374.326 173.495C372.105 173.495 370.228 171.905 370.228 169.128H377.908C377.908 169.128 377.946 168.822 377.946 168.611C377.946 166.294 376.644 164.245 374.039 164.245C371.587 164.245 369.385 166.045 369.385 169.282ZM370.285 168.381C370.63 166.141 372.258 164.992 374.02 164.992C375.609 164.992 377.007 166.045 377.103 168.381H370.285ZM380.798 170.584C380.798 173.763 382.848 174.127 383.844 174.127C384.131 174.127 384.322 174.089 384.322 174.089V173.342C384.322 173.342 384.15 173.38 383.882 173.38C383.116 173.38 381.603 173.055 381.603 170.526V165.202H384.112V164.474H381.603V161.812H380.798V164.474H379.534V165.202H380.798V170.584ZM385.597 176.559L385.118 177.172C385.118 177.172 385.788 178.072 387.033 178.072C388.24 178.072 389.044 177.287 389.466 176.291L393.89 165.662C394.043 165.298 394.254 165.202 394.617 165.202H394.771V164.474H394.637C393.679 164.474 393.449 164.647 393.066 165.585L390.366 172.116C390.174 172.576 390.04 173.016 390.04 173.016H390.002C390.002 173.016 389.868 172.576 389.676 172.116L386.957 165.585C386.574 164.647 386.344 164.474 385.386 164.474H385.252V165.202H385.405C385.769 165.202 385.98 165.298 386.133 165.662L389.6 173.993L388.91 175.583C388.527 176.483 387.953 177.306 387.033 177.306C386.21 177.306 385.597 176.578 385.597 176.559Z" fill="white"/>
</svg>
