<?xml version="1.0" encoding="utf-8"?>
<!-- Generator: Adobe Illustrator 20.1.0, SVG Export Plug-In . SVG Version: 6.00 Build 0)  -->
<!DOCTYPE svg PUBLIC "-//W3C//DTD SVG 1.1//EN" "http://www.w3.org/Graphics/SVG/1.1/DTD/svg11.dtd">
<svg version="1.1" id="Layer_1" xmlns="http://www.w3.org/2000/svg" xmlns:xlink="http://www.w3.org/1999/xlink" x="0px" y="0px"
	 viewBox="0 0 216 216" style="enable-background:new 0 0 216 216;" xml:space="preserve">
<style type="text/css">
	.st0{fill:#FFFFFF;}
	.st1{fill:#27AAE1;}
	.st2{fill:none;stroke:#FFFFFF;stroke-width:3;stroke-miterlimit:10;}
	.st3{fill:#939598;}
	.st4{fill:none;stroke:#27AAE1;stroke-width:4;stroke-miterlimit:10;}
	.st5{font-family:'Museo-500';}
	.st6{font-size:58.4652px;}
	.st7{fill:none;stroke:#939598;stroke-width:4;stroke-miterlimit:10;}
</style>
<g>
	<path class="st0" d="M108,188c-11,0-21.7-2.2-31.7-6.5c-12.7-5.5-23.9-14.3-32.2-25.4C33.5,142.2,28,125.5,28,108
		c0-0.4,0-0.8,0-1.2l160,0c0,0.4,0,0.8,0,1.2c0,17.5-5.6,34.2-16.1,48.1c-8.4,11.1-19.5,19.9-32.2,25.4C129.7,185.8,119,188,108,188
		z"/>
	<path class="st1" d="M42.5,108.8L42.5,108.8l131.1,0H186c-0.2,16.8-5.6,32.7-15.7,46.2c-8.2,10.8-19,19.4-31.4,24.7
		c-9.8,4.2-20.2,6.4-30.9,6.4s-21.1-2.1-30.9-6.4c-12.4-5.4-23.3-13.9-31.4-24.7c-10.1-13.4-15.5-29.4-15.7-46.2H42.5 M42.5,104.8
		H26c0,1.1-0.1,2.2-0.1,3.2c0,18.5,6.1,35.6,16.5,49.3c8.5,11.3,19.9,20.3,33,26c10,4.3,21,6.7,32.5,6.7s22.5-2.4,32.5-6.7
		c13.2-5.7,24.5-14.7,33-26c10.3-13.7,16.5-30.8,16.5-49.3c0-1.1,0-2.2-0.1-3.2h-16.4L42.5,104.8L42.5,104.8z"/>
</g>
<path class="st1" d="M190,104.8h-16.4l-131.1,0H26c0.7-17.3,6.7-33.2,16.4-46.1c8.5-11.3,19.9-20.3,33-26c10-4.3,21-6.7,32.5-6.7
	s22.5,2.4,32.5,6.7c13.2,5.7,24.5,14.7,33,26C183.3,71.6,189.3,87.5,190,104.8z"/>
<polygon class="st1" points="173.5,104.8 42.5,104.8 42.5,104.8 "/>
<text transform="matrix(1 0 0 1 64.0646 92.1499)"><tspan x="0" y="0" class="st0 st5 st6">C S</tspan><tspan x="-0.8" y="70.2" class="st1 st5 st6">U S</tspan></text>
</svg>
