<?xml version="1.0" encoding="utf-8"?>
<!-- Generator: Adobe Illustrator 20.1.0, SVG Export Plug-In . SVG Version: 6.00 Build 0)  -->
<!DOCTYPE svg PUBLIC "-//W3C//DTD SVG 1.1//EN" "http://www.w3.org/Graphics/SVG/1.1/DTD/svg11.dtd">
<svg version="1.1" id="Layer_1" xmlns="http://www.w3.org/2000/svg" xmlns:xlink="http://www.w3.org/1999/xlink" x="0px" y="0px"
	 viewBox="0 0 432 216" style="enable-background:new 0 0 432 216;" xml:space="preserve">
<style type="text/css">
	.st0{fill:#FFFFFF;}
	.st1{fill:#27AAE1;}
	.st2{fill:none;stroke:#FFFFFF;stroke-width:3;stroke-miterlimit:10;}
	.st3{fill:#939598;}
	.st4{fill:none;stroke:#27AAE1;stroke-width:4;stroke-miterlimit:10;}
	.st5{fill:none;stroke:#939598;stroke-width:4;stroke-miterlimit:10;}
	.st6{font-family:'Museo-500';}
	.st7{font-size:58.4652px;}
	.st8{font-family:'Museo-100';}
	.st9{font-size:19.1519px;}
</style>
<rect x="41.3" y="41.3" class="st3" width="216" height="97.8"/>
<text transform="matrix(1 0 0 1 160.8835 110.8015)"><tspan x="0" y="0" class="st0 st6 st7">C S</tspan><tspan x="87.9" y="0" class="st6 st7"> </tspan><tspan x="103.6" y="0" class="st3 st6 st7">U S</tspan></text>
<path class="st3" d="M390.7,41.3V139H41.3V41.3H390.7L390.7,41.3z M395.7,36.3h-5H41.3h-5v5V139v5h5h349.5h5v-5V41.3V36.3
	L395.7,36.3z"/>
<line class="st2" x1="30.3" y1="90.1" x2="130" y2="90.1"/>
<polyline class="st2" points="30.3,78.8 80.6,78.8 92.7,66.7 "/>
<path class="st0" d="M95.4,58.9c-2.8,0-5.1,2.3-5.1,5.1c0,2.8,2.3,5.1,5.1,5.1s5.1-2.3,5.1-5.1C100.5,61.1,98.2,58.9,95.4,58.9z
	 M95.4,67.1c-1.7,0-3.1-1.4-3.1-3.1c0-1.7,1.4-3.1,3.1-3.1c1.7,0,3.1,1.4,3.1,3.1C98.5,65.7,97.1,67.1,95.4,67.1z"/>
<path class="st0" d="M134.6,85c-2.8,0-5.1,2.3-5.1,5.1c0,2.8,2.3,5.1,5.1,5.1s5.1-2.3,5.1-5.1C139.7,87.3,137.4,85,134.6,85z
	 M134.6,93.3c-1.7,0-3.1-1.4-3.1-3.1c0-1.7,1.4-3.1,3.1-3.1c1.7,0,3.1,1.4,3.1,3.1C137.7,91.9,136.3,93.3,134.6,93.3z"/>
<path class="st0" d="M121,114.3c-2.8,0-5.1,2.3-5.1,5.1c0,2.8,2.3,5.1,5.1,5.1s5.1-2.3,5.1-5.1C126.1,116.6,123.8,114.3,121,114.3z
	 M121,122.6c-1.7,0-3.1-1.4-3.1-3.1c0-1.7,1.4-3.1,3.1-3.1c1.7,0,3.1,1.4,3.1,3.1C124.1,121.2,122.7,122.6,121,122.6z"/>
<polyline class="st2" points="30.3,101.5 103.1,101.5 118.3,116.8 "/>
<text transform="matrix(1 0 0 1 35.5162 175.2023)" class="st8 st9">Computer Science Undergraduate Society</text>
</svg>
