<?xml version="1.0" encoding="utf-8"?>
<!-- Generator: Adobe Illustrator 20.1.0, SVG Export Plug-In . SVG Version: 6.00 Build 0)  -->
<!DOCTYPE svg PUBLIC "-//W3C//DTD SVG 1.1//EN" "http://www.w3.org/Graphics/SVG/1.1/DTD/svg11.dtd">
<svg version="1.1" id="Layer_1" xmlns="http://www.w3.org/2000/svg" xmlns:xlink="http://www.w3.org/1999/xlink" x="0px" y="0px"
	 viewBox="0 0 432 216" style="enable-background:new 0 0 432 216;" xml:space="preserve">
<style type="text/css">
	.st0{fill:#FFFFFF;}
	.st1{fill:#27AAE1;}
	.st2{font-family:'Museo';}
	.st3{font-size:58.4652px;}
	.st4{fill:none;stroke:#FFFFFF;stroke-width:3;stroke-miterlimit:10;}
	.st5{fill:#939598;}
	.st6{fill:none;stroke:#27AAE1;stroke-width:4;stroke-miterlimit:10;}
	.st7{fill:none;stroke:#939598;stroke-width:4;stroke-miterlimit:10;}
</style>
<rect x="257.4" y="59.1" class="st0" width="133.3" height="97.8"/>
<rect x="41.3" y="59.1" class="st1" width="216" height="97.8"/>
<text transform="matrix(1 0 0 1 160.8834 128.6572)"><tspan x="0" y="0" class="st0 st2 st3">C S</tspan><tspan x="87.9" y="0" class="st2 st3"> </tspan><tspan x="103.6" y="0" class="st1 st2 st3">U S</tspan></text>
<path class="st1" d="M390.7,59.1v97.8H41.3V59.1H390.7L390.7,59.1z M395.7,54.1h-5H41.3h-5v5v97.8v5h5h349.5h5v-5V59.1V54.1
	L395.7,54.1z"/>
<line class="st4" x1="30.3" y1="108" x2="130" y2="108"/>
<polyline class="st4" points="30.3,96.6 80.6,96.6 92.7,84.6 "/>
<path class="st0" d="M95.4,76.7c-2.8,0-5.1,2.3-5.1,5.1c0,2.8,2.3,5.1,5.1,5.1s5.1-2.3,5.1-5.1C100.5,79,98.2,76.7,95.4,76.7z
	 M95.4,85c-1.7,0-3.1-1.4-3.1-3.1c0-1.7,1.4-3.1,3.1-3.1c1.7,0,3.1,1.4,3.1,3.1C98.5,83.6,97.1,85,95.4,85z"/>
<path class="st0" d="M134.6,102.9c-2.8,0-5.1,2.3-5.1,5.1c0,2.8,2.3,5.1,5.1,5.1s5.1-2.3,5.1-5.1
	C139.7,105.2,137.4,102.9,134.6,102.9z M134.6,111.1c-1.7,0-3.1-1.4-3.1-3.1c0-1.7,1.4-3.1,3.1-3.1c1.7,0,3.1,1.4,3.1,3.1
	C137.7,109.7,136.3,111.1,134.6,111.1z"/>
<path class="st0" d="M121,132.2c-2.8,0-5.1,2.3-5.1,5.1c0,2.8,2.3,5.1,5.1,5.1s5.1-2.3,5.1-5.1C126.1,134.5,123.8,132.2,121,132.2z
	 M121,140.4c-1.7,0-3.1-1.4-3.1-3.1c0-1.7,1.4-3.1,3.1-3.1c1.7,0,3.1,1.4,3.1,3.1C124.1,139,122.7,140.4,121,140.4z"/>
<polyline class="st4" points="30.3,119.4 103.1,119.4 118.3,134.6 "/>
</svg>
